<?xml version="1.0" encoding="UTF-8" standalone="no"?>
<!-- Created with Inkscape (http://www.inkscape.org/) -->
<svg id="svg3336" xmlns:rdf="http://www.w3.org/1999/02/22-rdf-syntax-ns#" xmlns="http://www.w3.org/2000/svg" height="492" viewBox="0 0 492 492" width="492" version="1.1" xmlns:cc="http://creativecommons.org/ns#" xmlns:dc="http://purl.org/dc/elements/1.1/">
 <metadata id="metadata3342">
  <rdf:RDF>
   <cc:Work rdf:about="">
    <dc:format>image/svg+xml</dc:format>
    <dc:type rdf:resource="http://purl.org/dc/dcmitype/StillImage"/>
    <dc:title/>
   </cc:Work>
  </rdf:RDF>
 </metadata>
 <path id="path3362" d="m0.50862 245.93v-245.56h245.32 245.32v245.56 245.56h-245.32-245.32v-245.56z" fill="#fdfcfc"/>
 <path id="path3360" d="m0.50862 245.93v-245.56h245.32 245.32v245.56 245.56h-245.32-245.32v-245.56zm255.29 148.72c15.815-1.1816 33.866-4.114 43.503-7.0671 22.447-6.8788 40.902-24.227 48.303-45.406 5.3644-15.351 5.2124-12.143 5.8383-123.24 0.54793-97.264 0.68808-103.52 2.3762-106.1 2.5291-3.8624 6.6377-5.504 18.649-7.4514 9.2406-1.4982 10.471-1.9322 10.471-3.6941 0-1.9315-0.76171-2.0059-23.435-2.2874-25.502-0.31666-36.519 0.6471-43.711 3.8237-5.6457 2.4938-11.58 8.0449-14.365 13.437-4.8748 9.4394-4.8338 8.61-4.7551 96.328 0.0452 50.36-0.33607 87.006-0.98138 94.331-2.0366 23.119-6.4729 35.749-15.982 45.502-9.4846 9.7275-25.228 15.85-46.451 18.064-13.947 1.4552-29.756 0.0777-42.914-3.7393-24.133-7.0006-35.014-19.862-39.764-47.003-1.9614-11.209-3.0973-84.676-2.0034-129.59l0.75299-30.915 3.1211-3.106c2.6098-2.5972 4.4175-3.3139 11.035-4.3746 9.537-1.5288 10.535-1.8761 10.535-3.666 0-1.1648-6.3136-1.3905-38.891-1.3905-33.43 0-38.891 0.20464-38.891 1.4573 0 0.87043 1.7067 1.9155 4.2382 2.5952 8.9362 2.3994 12.855 4.2186 14.501 6.7314 1.558 2.3789 1.7505 9.3056 2.2512 81.006 0.4878 69.852 0.74341 79.44 2.3431 87.888 3.5177 18.578 10.945 32.556 23.439 44.112 12.923 11.954 23.999 16.808 47.352 20.753 22.273 3.763 41.228 4.6595 63.437 3.0002z" fill="#fbe5cf"/>
 <path id="path3358" d="m0.50862 245.93v-245.56h245.32 245.32v245.56 245.56h-245.32-245.32v-245.56zm251.66 149.73c16.656-1.0799 35.337-3.9034 46.49-7.0264 25.222-7.0631 45.612-28.175 51.919-53.759 3.6093-14.641 3.942-24.927 3.942-121.88 0-81.127 0.21222-95.41 1.4622-98.405 1.872-4.4847 6.9923-6.789 18.67-8.4018 9.8954-1.3667 12.889-2.8922 11.167-5.691-1.0292-1.6733-3.1449-1.8029-28.919-1.7718-23.816 0.02874-28.668 0.2912-33.792 1.828-11.731 3.5184-18.057 9.2842-22.732 20.72-2.1919 5.3613-2.1953 5.4838-2.7978 99.2-0.64855 100.88-0.53667 98.716-5.956 115.02-2.6063 7.8396-9.066 16.73-15.695 21.601-21.555 15.838-69.24 18.11-96.027 4.5747-7.9653-4.0249-16.877-13.106-20.667-21.06-1.6606-3.485-4.0287-10.828-5.2626-16.319-2.1978-9.7795-2.251-11.516-2.6198-85.536-0.33557-67.345-0.20551-75.885 1.197-78.6 2.2565-4.368 4.9453-5.7506 14.31-7.3586 8.7539-1.5031 10.801-2.5705 9.8229-5.122-0.53036-1.3835-5.1053-1.5644-39.554-1.5644-35.228 0-39.014 0.15702-39.583 1.6417-0.86556 2.2579 1.5132 3.7671 8.352 5.2991 6.9484 1.5565 9.7433 3.2681 11.158 6.8333 0.71739 1.8073 1.2 28.205 1.4638 80.058 0.41455 81.504 0.598 84.995 5.2058 99.072 7.0075 21.407 22.577 38.427 43.038 47.048 12.06 5.0812 37.324 8.9952 67.096 10.395 1.9196 0.0902 10.161-0.26837 18.313-0.79695z" fill="#fad4ae"/>
 <path id="path3356" d="m0.50862 245.93v-245.56h245.32 245.32v245.56 245.56h-245.32-245.32v-245.56zm259.77 149.71c22.697-2.0992 38.232-5.4938 49.861-10.895 21.381-9.9308 35.979-28.618 42.16-53.971 1.3725-5.6298 1.6568-20.233 2.1486-110.35 0.52869-96.883 0.6846-104.04 2.3213-106.54 2.5415-3.8813 6.6157-5.6188 15.935-6.7958 11.383-1.4376 13.907-2.5198 13.526-5.8006l-0.30177-2.6022h-29.418c-25.259 0-30.219 0.2482-35.086 1.7555-7.0715 2.1903-13.312 6.8588-17.504 13.094-7.0568 10.497-7.2303 13.119-7.2435 109.43-0.0125 91.156-0.26578 96.74-5.0354 110.98-6.4114 19.139-20.315 29.411-46.448 34.316-12.505 2.3472-38.461 1.5939-49.734-1.4432-20.823-5.6104-33.271-16.362-38.554-33.3-4.4903-14.396-4.8128-20.973-4.819-98.275-0.004-51.728 0.31967-73.787 1.1086-75.521 1.4873-3.2676 5.8987-5.3183 14.324-6.6587 3.8291-0.60921 7.5312-1.5806 8.227-2.1587 1.7617-1.4635 1.5812-4.4644-0.31227-5.1917-2.0596-0.79114-74.563-0.79114-76.623 0-0.86756 0.33325-1.5774 1.6683-1.5774 2.9668 0 2.0241 0.81784 2.5878 5.734 3.952 9.0292 2.5055 11.256 3.5826 13.041 6.3086 1.5116 2.308 1.7208 10.035 2.2326 82.449 0.53863 76.215 0.66024 80.317 2.6349 88.886 3.956 17.168 9.8399 28.14 21.175 39.488 12.799 12.813 25.403 18.82 47.962 22.858 21.701 3.8846 48.473 5.0351 70.266 3.0195z" fill="#f9c48f"/>
 <path id="path3354" d="m0.50862 245.93v-245.56h245.32 245.32v245.56 245.56h-245.32-245.32v-245.56zm251.66 150.73c16.646-1.0792 35.32-3.9006 46.506-7.0266 22.085-6.1715 41.679-23.96 49.989-45.382 6.2383-16.082 6.1294-14.05 6.7683-126.27 0.50413-88.548 0.78356-102.62 2.0764-104.57 1.9113-2.8888 7.4114-4.8654 17.453-6.272 8.7861-1.2307 12.465-2.9815 12.465-5.9321 0-3.9045-2.9186-4.2499-31.803-3.7633-24.629 0.41494-28.223 0.6886-34.098 2.5959-11.388 3.6973-17.291 9.3578-22.148 21.239-2.1934 5.3653-2.1964 5.4714-2.799 99.203-0.641 99.702-0.59238 98.698-5.5105 113.76-3.669 11.237-12.351 21.169-23.181 26.52-23.765 11.742-63.596 11.725-87.529-0.0372-7.0428-3.4614-16.788-13.201-20.136-20.125-2.9704-6.1421-5.8218-17.887-7.0759-29.145-0.65143-5.8479-1.0613-36.504-1.059-79.205 0.004-67.317 0.0693-69.772 1.949-72.858 2.0776-3.4107 5.149-4.6299 14.808-5.8781 6.5095-0.84116 9.7074-3.1228 8.724-6.2244l-0.69606-2.1953-40.067 0.26082-40.067 0.26081-0.3104 2.1829c-0.39149 2.7531 2.5306 4.67 9.6179 6.3091 2.9252 0.67656 6.5152 2.26 7.9777 3.5188l2.6591 2.2887 0.56966 78.197c0.62408 85.669 0.77456 87.986 6.7872 104.48 8.7965 24.127 28.899 42.034 53.898 48.011 12.007 2.8707 26.716 5.0399 40.468 5.968 17.082 1.1529 17.415 1.1538 33.763 0.0939z" fill="#f8b36c"/>
 <path id="path3352" d="m0.50862 245.93v-245.56h245.32 245.32v245.56 245.56h-245.32-245.32v-245.56zm259.28 150.69c14.364-1.2934 31.43-4.2551 40.451-7.0199 22.478-6.889 40.737-23.863 48.882-45.443 5.9839-15.853 5.7227-10.752 6.3349-123.68 0.44278-81.671 0.83501-104.29 1.8389-106.05 1.9708-3.4528 6.1597-5.0925 17.281-6.7646 5.6242-0.84557 10.84-2.048 11.591-2.6719 0.76634-0.63664 1.2339-2.4861 1.0654-4.2142l-0.30023-3.0797-26.426-0.28728c-15.969-0.1736-28.991 0.14566-32.908 0.8068-15.982 2.6977-24.891 10.609-29.763 26.432-1.3179 4.2802-1.6249 18.356-2.1558 98.823-0.54554 82.685-0.81651 94.662-2.2809 100.82-5.6679 23.833-15.357 34.013-38.861 40.831-28.629 8.3048-66.992 3.3459-83.148-10.748-5.5769-4.865-11.223-13.614-13.489-20.902-4.5468-14.623-4.8069-19.933-4.8111-98.215l-0.004-74.062 2.288-2.6627c1.8656-2.171 3.8315-2.9295 10.647-4.1076 4.5972-0.79472 9.1769-1.8834 10.177-2.4192 2.4079-1.29 2.3395-5.5458-0.11028-6.8582-1.2309-0.65943-15.415-1.0333-39.2-1.0333-40.154 0-41.182 0.1282-40.489 5.047 0.28486 2.0202 1.3728 2.7559 6.3273 4.2793 3.2908 1.0118 7.2385 2.3104 8.7727 2.8857 5.8501 2.1937 5.687-0.11602 5.687 80.538 0 61.617 0.25941 75.753 1.5625 85.147 2.9749 21.447 9.2426 34.729 22.784 48.284 13.416 13.43 26.187 19.506 49.178 23.399 22.787 3.8584 47.231 4.8941 69.078 2.9268z" fill="#f6a552"/>
 <path id="path3350" d="m0.50862 245.93v-245.56h245.32 245.32v245.56 245.56h-245.32-245.32v-245.56zm270.24 150.13c16.88-2.1546 32.073-5.8425 40.196-9.7565 19.032-9.1703 33.653-25.854 40.462-46.168 4.7582-14.196 5.1023-22.642 5.1023-125.23 0-105.95-0.26324-101.52 6.1967-104.12 1.8023-0.72573 7.3156-1.8607 12.252-2.5222 4.9362-0.66145 9.9846-1.8586 11.219-2.6604 2.4764-1.6089 3.0606-6.1841 1.0471-8.1996-1.5135-1.515-47.838-1.6366-58.138-0.1525-13.196 1.9013-23.759 8.7801-28.483 18.548-5.3922 11.15-5.218 7.7659-5.4373 105.68-0.19917 88.944-0.24856 91.056-2.3695 101.32-5.135 24.847-16.054 36.02-41.493 42.46-26.355 6.6713-60.446 2.5753-76.397-9.1793-10.322-7.6063-15.325-16.361-19.017-33.28-2.2723-10.412-2.2876-10.984-2.3002-86.182l-0.0127-75.7 2.6812-2.3093c1.8457-1.5897 4.9532-2.6592 9.9722-3.432 8.8626-1.3646 12.173-2.9158 12.603-5.9046 0.74485-5.1835 0.99674-5.1523-41.633-5.1523-41.867 0-41.96 0.0104-41.96 4.6686 0 2.9439 3.0861 4.8472 10.19 6.2846 3.1366 0.63466 6.7266 1.9834 7.9777 2.9971l2.2749 1.8432 0.55314 78.698c0.494 70.28 0.74609 79.713 2.3569 88.181 3.7477 19.703 9.7838 31.412 22.915 44.451 13.866 13.768 25.496 19.123 50.839 23.407 24.389 4.1227 53.122 4.6408 78.404 1.4136z" fill="#f68e22"/>
 <path id="path3348" d="m185.42 414.65c-21.006-2.9786-46.568-15.876-59.795-30.171-11.405-12.326-18.998-26.472-23.464-43.72-3.0418-11.746-2.3718-21.056 2.4782-34.436 5.8732-16.202 5.8878-16.377 2.5418-30.505-3.6028-15.212-3.8208-25.89-0.96356-47.215 3.2924-24.573 2.6278-30.772-5.061-47.202-9.8228-20.99-12.168-32.181-8.1946-39.11 1.5209-2.6527 2.3919-3.0553 7.8837-3.644 3.3956-0.36401 8.3069-1.3044 10.914-2.0898 10.247-3.0871 33.729-0.94884 42.766 3.8943l4.0385 2.1643-31.911 0.49911-31.911 0.49911-0.31365 3.813c-0.17251 2.0971 0.20029 4.4328 0.82843 5.1905 0.62815 0.75763 4.4749 2.1197 8.5484 3.0269 12.518 2.7878 11.38-4.9932 11.38 77.77 0 75.238 0.48559 86.145 4.5499 102.19 5.8328 23.034 19.871 40.461 40.824 50.676 14.309 6.9768 31.163 10.456 60.261 12.44 23.885 1.6284 55.247-1.0562 77.223-6.6102 8.9099-2.2518 23.149-9.6403 30.192-15.666 11.372-9.7299 18.708-20.384 23.364-33.929 2.7638-8.041 5.9106-27.339 5.9106-36.248 0-2.4424 0.16957-4.4408 0.37683-4.4408 1.7981 0 7.6144 3.3819 9.7308 5.658 5.1377 5.5254 6.3386 9.1034 6.3427 18.899l0.004 9.0843-7.6998 15.625c-9.4735 19.224-13.281 25.253-21.083 33.386-7.3351 7.6464-16.21 13.701-28.911 19.723-19.428 9.2122-15.893 8.6802-62.97 9.4775-23.036 0.39018-46.371 0.96025-51.855 1.2668-5.4847 0.30659-12.696 0.17121-16.025-0.30083zm22.756-47.935c-9.5387-1.3428-20.991-4.7677-27.43-8.2031-6.9884-3.7285-15.559-12.702-19.053-19.949-3.2407-6.7219-6.3026-22.124-7.2032-36.233l-0.70085-10.98 3.6464 4.3512c2.0055 2.3932 5.2707 7.3343 7.2559 10.98 11.468 21.062 17.052 28.159 26.75 33.998 6.2968 3.7911 26.433 11.047 30.685 11.057 3.4626 0.008 20.771-5.4989 26.702-8.4952 8.356-4.2216 16.966-11.633 25.33-21.805 4.5771-5.5664 10.594-12.035 13.371-14.375 3.9238-3.3061 5.2609-5.1971 5.9991-8.4848 1.865-8.3057 0.0361 14.342-1.9904 24.647-2.3956 12.183-5.4799 18.9-11.911 25.944-7.592 8.3152-16.259 12.658-32.309 16.19-8.3025 1.8268-30.375 2.5934-39.141 1.3593zm-54.1-197.88c0-5.5815 1.4451-9.1205 4.3625-10.683 1.1812-0.63282 5.8328-1.7412 10.337-2.4631 10.053-1.6113 11.424-2.6051 11.029-7.9988l-0.29867-4.0792-5.2354-0.30172c-6.0613-0.34932-6.6956-1.685-1.7772-3.7421 4.3323-1.8119 7.5112-1.8553 7.5112-0.10242 0 0.73917 0.7109 2.7704 1.5798 4.5139 1.7915 3.5947 1.1741 10.209-1.1722 12.558-0.77266 0.77342-1.4048 2.1121-1.4048 2.9748 0 0.86275-0.6126 1.5686-1.3613 1.5686-0.74875 0-2.4316 0.84099-3.7396 1.8689s-4.3007 2.193-6.6504 2.589c-5.4272 0.91484-9.7541 3.0701-11.675 5.8153-1.4324 2.0471-1.5041 1.927-1.5041-2.5175zm203.6-39.154c0.31457-12.967 0.42549-13.58 2.9085-16.063 2.1892-2.1889 4.235-2.8153 13.462-4.1222 13.259-1.8778 15.368-2.994 15.368-8.1329 0-2.0736-0.53849-4.3092-1.1967-4.9681-1.5545-1.556-47.247-1.6528-58.232-0.12338-14.873 2.0707-24.122 7.5645-29.523 17.537-2.5153 4.6439-5.3048 13.782-5.9687 19.553l-0.31384 2.728-3.2321-2.5438c-6.5453-5.1515-7.8974-18.169-2.7929-26.888 4.7016-8.0306 18.168-19.061 30.087-24.644 8.4088-3.9389 19.796-4.7155 35.771-2.4397 17.844 2.542 27.526 6.4557 28.241 11.415 0.35519 2.4652 2.1744 3.0629 2.1744 0.71436 0-0.88783 0.91332-1.4966 2.2437-1.4955 1.5759 0.0013 3.0939 1.3488 5.1 4.5273 2.5294 4.0077 2.8095 5.2354 2.4477 10.729-0.98302 14.927-13.193 28.692-31.693 35.729l-5.1784 1.9696 0.32704-13.482z" fill="#f48b1e"/>
</svg>
